<svg xmlns="http://www.w3.org/2000/svg" viewBox="0 0 372.77 212.74"><title>1Asset 6</title><g id="Layer_2" data-name="Layer 2"><g id="Layer_1-2" data-name="Layer 1"><path d="M185.22,100.75a18.57,18.57,0,0,0,4.72,4.42c1.76,1.26,3.6,2.41,5.47,3.51,3.74,2.18,7.61,4.16,11.55,6a172.63,172.63,0,0,0,24.29,9c4.14,1.2,8.34,2.2,12.56,3,2.1.44,4.23.73,6.34,1.06s4.26.52,6.39.64A66.2,66.2,0,0,0,281.65,126l3-1c1-.39,1.9-.85,2.85-1.27L289,123c.53-.24,1.05-.51,1.6-.71a28.93,28.93,0,0,1,3.33-1.12,24.76,24.76,0,0,1,13.94.33,36.56,36.56,0,0,1,11.93,6.7,63.68,63.68,0,0,1,9.35,9.59,123.63,123.63,0,0,1,13.95,22.39,174,174,0,0,1,9.83,24.3,230.7,230.7,0,0,0-11.56-23.38,134.83,134.83,0,0,0-14.6-21.32,67,67,0,0,0-9.14-8.85,33,33,0,0,0-10.85-5.82,21.23,21.23,0,0,0-11.85-.18,24.59,24.59,0,0,0-2.85,1c-.47.18-.93.41-1.39.63l-1.46.69c-1,.46-2.06,1-3.11,1.4l-3.2,1.16a69,69,0,0,1-26.63,2.4c-2.22-.18-4.41-.51-6.61-.81s-4.37-.74-6.52-1.24-4.3-1-6.44-1.55-4.24-1.21-6.33-1.91a153,153,0,0,1-24.24-10.27,119,119,0,0,1-11.28-6.78c-1.8-1.24-3.57-2.55-5.25-4A18.93,18.93,0,0,1,185.22,100.75Z" fill="#ececec"/><path d="M370.59,28.71A111.73,111.73,0,0,1,356.7,44.24a91,91,0,0,1-16.84,12.58,49,49,0,0,1-20.25,6.7,32.76,32.76,0,0,1-10.92-1,34,34,0,0,1-10-4.56c-.76-.52-1.52-1.06-2.15-1.52s-1.36-.92-2.05-1.35a34.62,34.62,0,0,0-4.37-2.24,37.84,37.84,0,0,0-9.5-2.63,59.34,59.34,0,0,0-20,.83,134.91,134.91,0,0,0-19.72,5.69c-3.26,1.13-6.48,2.39-9.77,3.53a44.77,44.77,0,0,1-5,1.48,8.46,8.46,0,0,1-1.33.15,2.15,2.15,0,0,1-1.36-.32,1.24,1.24,0,0,1-.35-1.31,5.78,5.78,0,0,1,.43-1.23,5.5,5.5,0,0,0-.28,1.25,1.06,1.06,0,0,0,.37,1.05,1.92,1.92,0,0,0,1.15.11,8.65,8.65,0,0,0,1.22-.29,45.25,45.25,0,0,0,4.77-1.92c3.14-1.44,6.28-2.91,9.45-4.33A117.66,117.66,0,0,1,260,48a59.19,59.19,0,0,1,21.21-1.52,40.46,40.46,0,0,1,10.49,2.78,39,39,0,0,1,4.88,2.45c1.55.9,3.12,2.07,4.39,3a29.85,29.85,0,0,0,8.78,4.11,30.44,30.44,0,0,0,9.66,1c6.57-.32,13-2.65,19-5.69a100.36,100.36,0,0,0,17-11.32A150.19,150.19,0,0,0,370.59,28.71Z" fill="#ececec"/><path d="M189.88,78.91l-7.57-4.5s-4.7-1.15-4.6,1.92c0,0-1.05,3.25,3.26,4.12a4.44,4.44,0,0,0,2.86-2.37,2.75,2.75,0,0,0,.11-.41Z" fill="#ececec"/><path d="M94.21,12.88c.22-2-12.4-6.2-11.74,8.86,0,0,11.52-6.87,11.74-8.86" fill="#ececec"/><path d="M69.39,16.41c.19-1.67-10.39-5.2-9.84,7.43,0,0,9.66-5.76,9.84-7.43" fill="#ececec"/><path d="M17.93,29.51c.13-1.19-6.31-2.36-7.12,6.46,0,0,6.67-4.11,6.8-5.29" fill="#ececec"/><path d="M47.92,17.73c.19-1.68-9.53-4.35-9.51,8,0,0,9.66-5.75,9.85-7.43" fill="#ececec"/><path id="punkt" d="M103.87,21.74s11.52-6.87,11.74-8.86S103.2,6.68,103.87,21.74Z" fill="#ececec"/><path d="M122,15.44a42.26,42.26,0,0,1,5.81-6.22l-.14-.09A38.68,38.68,0,0,0,122,15.44Z" style="stroke:#f4f4f4;stroke-miterlimit:10;stroke-width:1.98888158798218px" fill="#ececec"/><path d="M122,15.44A61.49,61.49,0,0,0,111,37.5C112.86,32.09,116.52,22.88,122,15.44Z" style="stroke:#f4f4f4;stroke-miterlimit:10;stroke-width:1.98888158798218px" fill="#ececec"/><path d="M108.07,7.67s11-4.16,19.58,1.46c.32-.28.64-.56,1-.82,0,0-11.05-6.94-21.17-.7,0,0-15.29,10.18-16,26.36l.29.14C94.21,24.35,98.94,14.05,108.07,7.67Z" style="stroke:#f4f4f4;stroke-miterlimit:10;stroke-width:1.98888158798218px" fill="#ececec"/><path d="M79.27,10.77l-.7.94c.84-.77,1.37-1.16,1.37-1.16-10.42-2.66-17.44-.46-22.16,3.92C62.13,10.68,68.9,8.1,79.27,10.77Z" style="stroke:#f4f4f4;stroke-miterlimit:10;stroke-width:1.98888158798218px" fill="#ececec"/><path d="M69.65,23.66c.07-.15.14-.28.21-.42l-.11.16Z" style="stroke:#f4f4f4;stroke-miterlimit:10;stroke-width:1.98888158798218px" fill="#ececec"/><path d="M47.15,25.85a7,7,0,0,0-.4,1.3C46.87,26.71,47,26.28,47.15,25.85Z" style="stroke:#f4f4f4;stroke-miterlimit:10;stroke-width:1.98888158798218px" fill="#ececec"/><path d="M54.9,12.54h0c-5.79-.75-10.09.16-13.29,2C44.74,12.88,49,11.93,54.9,12.54Z" style="stroke:#f4f4f4;stroke-miterlimit:10;stroke-width:1.98888158798218px" fill="#ececec"/><path d="M97.44,6.78a5.69,5.69,0,0,1,3.75,1.37S99.75,5,92.05,7A21.17,21.17,0,0,1,97.44,6.78Z" style="stroke:#f4f4f4;stroke-miterlimit:10;stroke-width:1.98888158798218px" fill="#ececec"/><path d="M87.38,31.4l2.53-5.79,5.57-8.43,5.57-5.74S92.28,16.06,87.38,31.4Z" style="stroke:#f4f4f4;stroke-miterlimit:10;stroke-width:1.98888158798218px" fill="#ececec"/><path d="M92.05,7a21.51,21.51,0,0,0-11.73,6.37,17.71,17.71,0,0,1,1.61-1.28A32.59,32.59,0,0,1,92.05,7Z" style="stroke:#f4f4f4;stroke-miterlimit:10;stroke-width:1.98888158798218px" fill="#ececec"/><path d="M67.75,28.71l1.9-5.05a39.37,39.37,0,0,0-2.09,5Z" style="stroke:#f4f4f4;stroke-miterlimit:10;stroke-width:1.98888158798218px" fill="#ececec"/><path d="M69.86,23.24l8.71-11.53A40.89,40.89,0,0,0,69.86,23.24Z" style="stroke:#f4f4f4;stroke-miterlimit:10;stroke-width:1.98888158798218px" fill="#ececec"/><path d="M50.47,26.72l.14,0c1.43-4.57,3.66-9,7.17-12.27A24.85,24.85,0,0,0,50.47,26.72Z" style="stroke:#f4f4f4;stroke-miterlimit:10;stroke-width:1.98888158798218px" fill="#ececec"/><path d="M53.74,14.82l0-1s-3.94,4.11-6.63,12.05C48.87,21.6,53.74,14.82,53.74,14.82Z" style="stroke:#f4f4f4;stroke-miterlimit:10;stroke-width:1.98888158798218px" fill="#ececec"/><path d="M46.71,27.61a1.53,1.53,0,0,1,0-.46c0,.15-.09.31-.14.46Z" style="stroke:#f4f4f4;stroke-miterlimit:10;stroke-width:1.98888158798218px" fill="#ececec"/><path d="M41.61,14.57c-7.69,4.16-8.36,12.8-8.41,13.81C34.15,23.16,36.43,17.6,41.61,14.57Z" style="stroke:#f4f4f4;stroke-miterlimit:10;stroke-width:1.98888158798218px" fill="#ececec"/><path d="M356.2,54.63c-24.15-36.11-67.35-29.24-67.35-29.24-10.41,1.33-9.53-.89-9.53-.89C230.58,9,210,44,210,44L191.59,31.59c5.76-9.3.45-20.6-8.41-25s-8.2,3.1-8.2,3.1c19.72,11.74,9.08,18.83,9.08,18.83L171,21.62C166.56,5,156.81,1.46,156.81,1.46,135.1-2.52,136.21,7,136.21,7l14.84.22c14.4,5.1,9.31,12.19,9.31,12.19-2.88-4.43-29.47-8-29.47-8s5.1.89-.22.89-21.93,42.09-21.93,42.09A66.51,66.51,0,0,1,111,37.5c-1,2.78-1.44,4.56-1.44,4.56h-1.18l-16.64-8C88.66,46.37,89.14,57.78,89,59.51c-.22,3.1-3.32,0-3.32,0C83.91,48,85,38.71,87.38,31.4l-.57,1.3L71.74,27.83a38.62,38.62,0,0,1,8.58-14.45c-13.79,12-12.57,43.25-12.57,43.25-3.5-11.36-2.63-20.7-.19-27.94l-17-2a62.46,62.46,0,0,0-2.35,20.14,26.51,26.51,0,0,1-1.65-19.27l-13.42.88a.5.5,0,0,0,0-.11,49.41,49.41,0,0,0-.45,12.08C32.86,43,31,42.34,31,42.34a24.42,24.42,0,0,1,2.44-25.15C9.65,20.63,1.79,37.58.65,52.85A51.27,51.27,0,0,0,3.29,73.91c5.31,13.73,17.28,2.21,13.29-.45S26.77,51.31,26.77,51.31l.44-.89,12.63.67C54.46,69.48,73.29,66.6,73.29,66.6c2,7.53,14,4.43,14,4.43,3.1.88,1.11,3.54,1.11,3.54C76,85.65,35.41,96.06,35.41,96.06c29.91,9.08,67.35-19.49,67.35-19.49l6.91,6.26-.71-.06c-2.88-.22-8.64,10.85-8.64,13.51s-5.76,4.43-5.76,4.43c-16-4-31,9.53-37.44,19.06-1,1.5-3.3,5.09-2.06,6.7.81,1.06,2.88,1,3.76.76.46-.2.47-.76.54-1.06,2.72-10.68,15.83-15.39,20-17a48.21,48.21,0,0,1,17-3.15c10.64,2,23.71-16,23.71-16l12.18,5.1-1.55,15.28-9.75,10.86s-11.74,26.36-11.07,32.12,6.42.66,6.42.66l16.39-39.21c6.43-1.77,12.19-13.51,12.19-13.51l12,1.55a43.34,43.34,0,0,0-6.2,42.09c9.08,24.59,22.6,18.83,22.6,18.83,5.09,7.53,32.34,28.8,32.34,28.8,89.95,43.42,124.73,1.77,128.94-2.66s-2.66-6-2.66-6c-24.59,23.49-68.24-15.95-68.24-15.95,11.75-7.53,59.16,11.52,59.16,11.52-7.09-24.15-56.5-28.13-56.5-28.13-33.67-25.48-78-.89-78-.89-2,4.43-6.2-.89-6.2-.89-15.95-3.54-9.53-36.33-9.31-41s7.54-4.43,7.54-4.43c.1.29.24.57.36.86.22-.17.45-.33.67-.47a7.71,7.71,0,0,1,3.89-1.24,7.55,7.55,0,0,1,2.76-.11l-.15-.15,70.45.22L230.36,84.32l1.33-1.11,35.67,11.08s-21.93-17.74-32.2-27.56a9,9,0,0,1-1.87-1.83c-1.93-1.94-3.16-3.4-3.32-4.09-1.21-.9-2.06-4.3-2.05-4.47a4.7,4.7,0,0,1-.58-3.06c-1.17-.15-1.85-.2-1.85-.2C229.92,42.45,258.94,44,258.94,44c47.63,68.46,94.16,54.72,94.16,54.72C335.37,91.85,319.2,71,319.2,71l50.95,35.67S380.35,90.74,356.2,54.63Zm-331.09-27C14.14,30.93,8.82,44.39,6.83,50.7s-3.65,4.49-3.65,4.49C2.51,24.78,29.26,19.8,29.26,19.8Zm109.33-13.3c3.67,0,6.64,2.53,6.64,5.65s-3,5.65-6.64,5.65-6.65-2.53-6.65-5.65S130.77,14.31,134.44,14.31Zm-19.61,46a4,4,0,0,1-.15-.42c0,.14.1.28.15.42.69,1.6,4.08,7.71,17.89,14.59h0v0a138.05,138.05,0,0,0,23.12,8.68S122.85,83.15,114.83,60.31Zm46,97.56c-13.74-5.32-10.63-40.76-4.43-42.76.63-.2-3.55,30.35,11.3,37C167.67,152.11,174.54,163.19,160.8,157.87Zm31.24,2S212.43,190,264,195.38c-23-9.69-25.43-31.11-22.3-36.18,4.65-7.53-2.88-17.06-8.2-10.86s-35.88,1.56-35.88,1.56c49-19.28,61.14,4,61.14,4-12.18-4.65-12.63,8.42-12.63,8.42C256.28,195.75,313.88,198,313.88,198c-19.35,3.46-33.88,2.56-44.68-.71-15.16,1.13-48.18-.1-75.83-26.76C193.37,170.5,186.28,160.75,192,159.86Zm-3.77-80a5.75,5.75,0,0,1-.25,1c-1.42,4.13-6.62,5.47-6.62,5.47-10-2-7.53-9.52-7.53-9.52-.22-7.09,10.63-4.43,10.63-4.43L202,82.77ZM348.89,61.5s-28.8-27.91-51.84-25.7c0,0-9.31-4.43,3.54-6.64S351.1,54.86,348.89,61.5Z" fill="#ececec"/><path d="M355.78,54.91a72.29,72.29,0,0,0-6.73-8.49,65,65,0,0,0-8-7.26,66,66,0,0,0-19.16-9.95,78,78,0,0,0-21.32-3.77,71.17,71.17,0,0,0-10.83.34c-1.79.23-3.64.46-5.48.52a18.85,18.85,0,0,1-2.8-.09A6.38,6.38,0,0,1,280,25.9a2.58,2.58,0,0,1-.75-.42,1.07,1.07,0,0,1-.37-1.16l.31.66a81.67,81.67,0,0,0-18.86-3.74,59.5,59.5,0,0,0-19.09,1.55,53.2,53.2,0,0,0-17.4,7.92,50.5,50.5,0,0,0-13.41,13.54l-.29.45-.42-.29L191.31,32l-.39-.27.25-.41a15.33,15.33,0,0,0,2.23-9.52,18,18,0,0,0-3.67-9.16,21.05,21.05,0,0,0-3.51-3.55,19.21,19.21,0,0,0-4.29-2.55,7.45,7.45,0,0,0-1.16-.44l-.59-.2-.59-.11a4.2,4.2,0,0,0-2.26.07c-1.41.45-1.93,2.23-1.85,3.75l-.25-.39a59.19,59.19,0,0,1,5.22,3.55A27.21,27.21,0,0,1,185,17.17a10.28,10.28,0,0,1,2.36,6,3.29,3.29,0,0,1-.06.83,7.17,7.17,0,0,1-.16.83,7.55,7.55,0,0,1-.64,1.55,7.88,7.88,0,0,1-2.2,2.51l-.23.17-.28-.15-13.07-6.86-.19-.1-.06-.22-.91-3c-.38-1-.7-2-1.12-2.93a35.58,35.58,0,0,0-2.9-5.54,28.61,28.61,0,0,0-3.93-4.83,18.17,18.17,0,0,0-5-3.51l.08,0c-1.95-.3-3.9-.66-5.87-.79A36.08,36.08,0,0,0,145,1.11a13.87,13.87,0,0,0-5.5,1.51,6.28,6.28,0,0,0-2,1.83,4.29,4.29,0,0,0-.73,2.49l-.49-.44,14.84.22h.09l.07,0,2.09.83c.7.26,1.36.64,2,1a20.21,20.21,0,0,1,2,1.14,8.73,8.73,0,0,1,.92.68,8.84,8.84,0,0,1,.88.74A8,8,0,0,1,161.57,15a6.14,6.14,0,0,1-.81,4.66l-.37.59-.45-.61A7.47,7.47,0,0,0,157,17.75a33.87,33.87,0,0,0-3.58-1.29c-2.43-.74-4.93-1.34-7.43-1.89-5-1.07-10.08-1.93-15.15-2.64l.15-1a16.47,16.47,0,0,1,1.66.37,3,3,0,0,1,.45.15,1,1,0,0,1,.35.24.53.53,0,0,1,.15.33.62.62,0,0,1-.15.43,1,1,0,0,1-.18.13l-.1,0a3.47,3.47,0,0,1-1,.15l-.85,0h-.76a2.54,2.54,0,0,0-1.13.69,25.94,25.94,0,0,0-3.78,5.21c-2.22,3.76-4.16,7.71-6,11.67-3.73,8-7.17,16-10.44,24.2l-1,2.45,0-2.64a67.58,67.58,0,0,1,2.28-17l1,.29-1.43,4.53-.11.37h-1.66l-.1-.05L91.53,34.56l.7-.33a90.6,90.6,0,0,0-2.34,14.84c-.19,2.51-.29,5-.33,7.53v1.89a5.47,5.47,0,0,1-.27,2.07,1.41,1.41,0,0,1-.43.56,1.29,1.29,0,0,1-.71.26,2.37,2.37,0,0,1-1.16-.3,7.09,7.09,0,0,1-1.63-1.22l-.12-.11,0-.17a71.61,71.61,0,0,1-.8-14.26,55.66,55.66,0,0,1,2.5-14.07l.93.35-.57,1.3-.18.42-.43-.14L71.6,28.31h0l-.46-.15.13-.46a34.27,34.27,0,0,1,1.45-4.06,41.87,41.87,0,0,1,1.86-3.88,37,37,0,0,1,2.29-3.68,32.5,32.5,0,0,1,2.74-3.39h0L81,14.13c-.68-.08-.94.35-1.29.65s-.65.69-1,1a13.33,13.33,0,0,0-.91,1.08A13.45,13.45,0,0,0,76.94,18a31.15,31.15,0,0,0-2.86,4.91A51.71,51.71,0,0,0,70.4,33.74,87.16,87.16,0,0,0,68.61,45.1a96,96,0,0,0-.36,11.49v0l.17,3.92-1.14-3.76a51.46,51.46,0,0,1-2.35-14.1,42,42,0,0,1,2.16-14.14l.41.66-16.94-2,.53-.35a49.2,49.2,0,0,0-1.22,4.89c-.33,1.65-.59,3.32-.77,5a63.09,63.09,0,0,0-.34,10.09l.12,2.42L47.81,47.1a26.65,26.65,0,0,1-2.69-9.65,28.87,28.87,0,0,1,1-10l.52.63L33.23,29l-.56,0,0-.56v-.11l1,.11A42.09,42.09,0,0,0,33.07,36c0,1.26,0,2.52.14,3.79A4.5,4.5,0,0,1,33,41.89a1.62,1.62,0,0,1-1,.93,2,2,0,0,1-1.27,0l-.21-.06-.08-.21c-.39-1-.86-2.08-1.19-3.15a24.89,24.89,0,0,1-.8-3.28A24.51,24.51,0,0,1,29.76,22.8,23.26,23.26,0,0,1,33,16.87l.46.82a43.71,43.71,0,0,0-14.22,4.52,13,13,0,0,0-1.61.94l-1.58,1c-1,.72-2,1.52-2.95,2.29a33.56,33.56,0,0,0-5,5.56c-.35.52-.73,1-1.06,1.54l-.93,1.62L5.71,36l-.39.85-.8,1.69a43.17,43.17,0,0,0-2.27,7.13A52.35,52.35,0,0,0,1.11,60.56a54.73,54.73,0,0,0,1,7.44,32.43,32.43,0,0,0,2.24,7.1,11.54,11.54,0,0,0,2,3,6,6,0,0,0,3,1.77,6.74,6.74,0,0,0,6.31-2.32,3.76,3.76,0,0,0,1.17-3,1.25,1.25,0,0,0-.34-.56c-.09-.1-.59-.42-.75-.78a3.49,3.49,0,0,1-.31-2.16,15.53,15.53,0,0,1,1.13-3.75c.5-1.19,1.07-2.33,1.66-3.46A123.43,123.43,0,0,1,26.36,51l0,.07.45-.89.14-.29h.33l12.63.67h.2l.16.18c1.06,1.18,2.05,2.42,3.16,3.55a42.41,42.41,0,0,0,3.5,3.2c.62.49,1.23,1,1.86,1.48l2,1.31a16.72,16.72,0,0,0,2,1.21,23.39,23.39,0,0,0,2.1,1.1,36.15,36.15,0,0,0,9,3,31.59,31.59,0,0,0,9.39.5l.43,0,.13.42a5.93,5.93,0,0,0,2,3,7.94,7.94,0,0,0,3.51,1.41,16.45,16.45,0,0,0,3.91.19,24.09,24.09,0,0,0,3.91-.58l.15,0,.12,0a3.79,3.79,0,0,1,1.19.56,2,2,0,0,1,.83,1.19,2.54,2.54,0,0,1-.07,1.4,4.41,4.41,0,0,1-.58,1.17l0,0,0,0a54.06,54.06,0,0,1-12.37,7.5Q69.78,85.5,63,88c-9,3.3-18.19,6.13-27.47,8.6l0-1a45.12,45.12,0,0,0,8.78,1.62,53.51,53.51,0,0,0,9-.13,75.74,75.74,0,0,0,17.47-4A115.61,115.61,0,0,0,87.2,85.72a129,129,0,0,0,15.25-9.55l.34-.25.3.28L110,82.46l1.07,1-1.45-.1c-.24,0-.54-.06-.74-.06a1.31,1.31,0,0,0-.52.14,4.71,4.71,0,0,0-1.11.84,16.29,16.29,0,0,0-1.92,2.34,37.87,37.87,0,0,0-3,5.34,23.64,23.64,0,0,0-1.15,2.83,6.37,6.37,0,0,0-.32,1.4c0,.08,0,.24,0,.41a2,2,0,0,1-.11.48c-.05.14-.11.29-.17.43l-.25.39a7.83,7.83,0,0,1-2.59,2.07,19.74,19.74,0,0,1-3,1.25l-.13,0-.14,0a25.6,25.6,0,0,0-13.53.54,38.22,38.22,0,0,0-12.1,6.46A52.75,52.75,0,0,0,59.05,118a24.66,24.66,0,0,0-3.54,5.81c-.37,1-.52,2.19.21,2.65a4.27,4.27,0,0,0,3,.32l-.08,0c.06,0,.1-.06.15-.23a1.37,1.37,0,0,0,.07-.29l0-.21.06-.18.45-1.4A9.58,9.58,0,0,1,60,123.1a10.09,10.09,0,0,1,.67-1.31,20.78,20.78,0,0,1,3.65-4.58,35.85,35.85,0,0,1,9.7-6.34c1.74-.82,3.54-1.53,5.33-2.2A47.13,47.13,0,0,1,84.85,107a50,50,0,0,1,11.48-1.42h.09a12,12,0,0,0,6.94-1.15,30.24,30.24,0,0,0,6.14-3.94,54.28,54.28,0,0,0,5.37-5,66.54,66.54,0,0,0,4.76-5.63l.24-.32.36.15,12.18,5.09.35.15,0,.37-1.55,15.28,0,.16-.11.13-9.74,10.85.08-.13c-2.86,6.52-5.59,13.11-8,19.81a61.18,61.18,0,0,0-2.92,10.17l-.11.64c0,.21,0,.41,0,.62v.61l.12.6a1.94,1.94,0,0,0,1.17,1.65,3.29,3.29,0,0,0,2.2-.47,11.47,11.47,0,0,0,2.11-1.42l-.13.18L132.2,114.7l.1-.22.23-.07a10.56,10.56,0,0,0,3.8-2.22,22.79,22.79,0,0,0,3.13-3.3,39.51,39.51,0,0,0,2.66-3.74c.82-1.3,1.6-2.64,2.28-4l.16-.32.35,0,12,1.55.89.12-.58.71a39,39,0,0,0-4.92,8.07,44.08,44.08,0,0,0-3,9,42.83,42.83,0,0,0,.18,18.85,53.46,53.46,0,0,0,3,9,19.12,19.12,0,0,0,1,2.15l1.07,2.13c.39.68.83,1.34,1.25,2l.63,1c.22.33.47.63.71.94a19.4,19.4,0,0,0,7,6.15,13.8,13.8,0,0,0,4.42,1.3,10.59,10.59,0,0,0,4.5-.49l.38-.13.23.31a62.06,62.06,0,0,0,7.35,7.8c2.65,2.45,5.37,4.82,8.11,7.18q8.25,7,16.78,13.71l-.09-.06a225,225,0,0,0,34.06,13.37c1.47.42,2.93.87,4.4,1.27l4.44,1.1c1.48.4,3,.7,4.47,1s3,.63,4.48.88a129.08,129.08,0,0,0,18.17,1.87,85.19,85.19,0,0,0,35.7-6.17,65.31,65.31,0,0,0,15.63-9.24,58.27,58.27,0,0,0,6.63-6.23,10.59,10.59,0,0,0,.73-.83,4.7,4.7,0,0,0,.59-.86,1.93,1.93,0,0,0,.09-1.76c-.58-1.09-2.1-1.74-3.44-2.1l.45-.13a28.66,28.66,0,0,1-8.07,5.35,27.24,27.24,0,0,1-9.43,2.17,39.94,39.94,0,0,1-9.64-.68,61.18,61.18,0,0,1-9.25-2.66,94.51,94.51,0,0,1-17.11-8.68,127.28,127.28,0,0,1-15.41-11.44l-.52-.45.58-.34a16,16,0,0,1,7.64-1.82,49.77,49.77,0,0,1,7.73.48,120.45,120.45,0,0,1,15.08,3.13c5,1.31,9.85,2.82,14.71,4.45s9.68,3.36,14.45,5.24l-.66.6c-1.55-5.2-5.23-9.52-9.54-12.82a59.45,59.45,0,0,0-14.44-7.7,110.58,110.58,0,0,0-15.8-4.65,138.25,138.25,0,0,0-16.28-2.61h-.14l-.12-.09a55.83,55.83,0,0,0-18.12-9,56.49,56.49,0,0,0-10-2,65.32,65.32,0,0,0-10.18-.38,87,87,0,0,0-20.14,3.19,97.25,97.25,0,0,0-19,7.36l.22-.23a3.86,3.86,0,0,1-1.45,1.73,2.67,2.67,0,0,1-2.32.08,6.32,6.32,0,0,1-1.82-1.12,10.75,10.75,0,0,1-1.46-1.48l.28.18a11.58,11.58,0,0,1-6.1-3.62,17.48,17.48,0,0,1-3.33-6.21,45.41,45.41,0,0,1-1.73-13.79,117.65,117.65,0,0,1,1-13.8l.4-3.42c0-.29,0-.52.08-.85a4.33,4.33,0,0,1,.19-1,3.63,3.63,0,0,1,.42-.89c.09-.14.17-.28.27-.41l.33-.35a6.83,6.83,0,0,1,3.26-1.69,13.64,13.64,0,0,1,3.55-.42h.32l.14.33.35.83-.75-.21a9.08,9.08,0,0,1,2.26-1.27,8.07,8.07,0,0,1,2.57-.53h-.09a8.32,8.32,0,0,1,2.94-.12l-.41.86-.15-.14-.94-.87h1.28l70.45.22-.28.91-27.92-19-.55-.37.51-.42,1.33-1.11.21-.18.26.08,35.67,11.08-.46.87Q258.82,88,250.72,81.15c-2.7-2.29-5.39-4.59-8-6.92s-5.3-4.69-7.87-7.14l.05,0a10,10,0,0,1-2-1.93l0,.05c-.62-.64-1.24-1.28-1.84-2-.29-.34-.58-.69-.86-1.05a4.12,4.12,0,0,1-.74-1.34l.19.29a3.5,3.5,0,0,1-.92-1.11,9.94,9.94,0,0,1-.57-1.19c-.16-.4-.31-.8-.44-1.21l-.18-.62-.08-.32,0-.17,0-.09a1.12,1.12,0,0,1,0-.2l.07.29a5.26,5.26,0,0,1-.65-3.38l.43.56-1.82-.19-.68-.07.26-.62a9.37,9.37,0,0,1,2.94-3.7,17.2,17.2,0,0,1,4-2.3,40.2,40.2,0,0,1,8.82-2.41,81.15,81.15,0,0,1,9.05-.93c3-.15,6-.18,9.1,0h.24l.14.2a190.15,190.15,0,0,0,18,22.29,133.15,133.15,0,0,0,21.71,18.59,90.17,90.17,0,0,0,25.74,12.17,69.66,69.66,0,0,0,14,2.45,56.38,56.38,0,0,0,7.12,0,36.81,36.81,0,0,0,7-1l0,1A60.17,60.17,0,0,1,343.06,94a96.68,96.68,0,0,1-8.85-6.72c-2.79-2.42-5.48-5-8-7.63s-5-5.41-7.35-8.32l-2.16-2.7,2.84,2,50.95,35.67-.71.14a14,14,0,0,0,1.2-3.12c.13-.55.28-1.1.38-1.67l.26-1.69a34.38,34.38,0,0,0,.05-6.88,32.79,32.79,0,0,0-.43-3.43l-.3-1.71-.15-.85-.22-.84-.86-3.36-1.09-3.3c-.2-.55-.35-1.1-.57-1.64l-.66-1.61L366,73.11c-1-2.08-2-4.19-3.07-6.25s-2.24-4.07-3.44-6.06Zm.83-.55,3.76,5.93c1.21,2,2.3,4.07,3.46,6.11s2.07,4.2,3.1,6.3L368.27,76l.67,1.63c.21.54.38,1.11.57,1.66l1.11,3.35L371.5,86l.21.86.16.87.31,1.74a34.15,34.15,0,0,1,.44,3.5,35.75,35.75,0,0,1-.06,7.09l-.26,1.76c-.11.58-.27,1.16-.4,1.74a14.42,14.42,0,0,1-1.32,3.39l-.27.46-.44-.32-51-35.66.69-.72c2.27,2.85,4.74,5.59,7.28,8.23s5.21,5.17,8,7.57a96.77,96.77,0,0,0,8.75,6.64,58,58,0,0,0,9.67,5.09l1.41.58-1.45.37a38.1,38.1,0,0,1-7.22,1,58.3,58.3,0,0,1-7.24,0,70.1,70.1,0,0,1-14.24-2.49,90.82,90.82,0,0,1-26-12.3,134,134,0,0,1-21.89-18.73,193.53,193.53,0,0,1-18.1-22.4l.39.21c-3-.13-6-.1-9,0a80.89,80.89,0,0,0-8.93.92,38.79,38.79,0,0,0-8.6,2.34c-2.68,1.12-5.32,2.84-6.44,5.46l-.42-.69,1.87.2.5,0-.07.51a4.29,4.29,0,0,0,.52,2.75l.07.29s0-.06,0-.05l0,.07,0,.13.07.29.17.58c.12.38.25.77.4,1.14a9.41,9.41,0,0,0,.51,1.06,2.89,2.89,0,0,0,.65.81l.14.11.05.18a3.51,3.51,0,0,0,.57,1c.25.33.53.66.81,1,.58.65,1.19,1.28,1.8,1.9l0,0,0,0a9.35,9.35,0,0,0,1.77,1.73l0,0,0,0c2.55,2.43,5.19,4.78,7.84,7.11s5.33,4.62,8,6.9q8.08,6.86,16.31,13.52l2,1.63-2.48-.76L231.54,83.69l.47-.09-1.33,1.1,0-.79,27.91,19,1.34.92h-1.62l-70.45-.22.34-.87.15.15,1.16,1.07-1.56-.21a7.26,7.26,0,0,0-2.59.1h-.09a6.94,6.94,0,0,0-2.25.46,8.35,8.35,0,0,0-2,1.15l-.51.37-.25-.58-.37-.88.45.33a13,13,0,0,0-3.28.39,5.89,5.89,0,0,0-2.79,1.42l-.26.28-.2.31a2,2,0,0,0-.31.67,6.52,6.52,0,0,0-.23,1.59l-.41,3.44a116.4,116.4,0,0,0-1,13.69A44.79,44.79,0,0,0,173.48,140a16.66,16.66,0,0,0,3.13,5.86,10.62,10.62,0,0,0,5.57,3.31l.16,0,.12.14a7.78,7.78,0,0,0,2.85,2.29,1.67,1.67,0,0,0,1.48,0,2.93,2.93,0,0,0,1-1.28l.09-.16.12-.07a98.84,98.84,0,0,1,19.24-7.45,88.21,88.21,0,0,1,20.36-3.22,67.26,67.26,0,0,1,10.33.38,57.7,57.7,0,0,1,10.15,2,56.62,56.62,0,0,1,18.44,9.21l-.26-.1a139.59,139.59,0,0,1,16.42,2.62,111.13,111.13,0,0,1,15.94,4.7,60,60,0,0,1,14.69,7.84,32.64,32.64,0,0,1,6,5.87,23,23,0,0,1,3.89,7.46l.3,1-1-.37c-4.74-1.87-9.56-3.6-14.4-5.23s-9.72-3.12-14.65-4.42a121.72,121.72,0,0,0-14.95-3.11,49.33,49.33,0,0,0-7.57-.47,15.16,15.16,0,0,0-7.13,1.66l.07-.79A126.25,126.25,0,0,0,279.2,179a93.12,93.12,0,0,0,16.92,8.59,60.54,60.54,0,0,0,9.1,2.62,38.91,38.91,0,0,0,9.38.66,26,26,0,0,0,9.1-2.09,27.66,27.66,0,0,0,7.78-5.15l.21-.19.25.06a10,10,0,0,1,2.26.88,4.42,4.42,0,0,1,1.86,1.76,3,3,0,0,1-.1,2.64,5.12,5.12,0,0,1-.7,1,10.12,10.12,0,0,1-.78.89,60.15,60.15,0,0,1-6.73,6.33,66.5,66.5,0,0,1-15.87,9.38,86.16,86.16,0,0,1-36.11,6.25,130.9,130.9,0,0,1-18.32-1.88c-1.51-.25-3-.6-4.52-.89s-3-.61-4.49-1L244,207.81c-1.48-.41-2.95-.86-4.42-1.28a226.87,226.87,0,0,1-34.22-13.43l-.05,0,0,0q-8.53-6.72-16.81-13.74c-2.75-2.36-5.48-4.74-8.14-7.21a62.38,62.38,0,0,1-7.5-8l.61.18a11.52,11.52,0,0,1-5,.57,14.94,14.94,0,0,1-4.76-1.41,20.32,20.32,0,0,1-7.33-6.44c-.24-.32-.51-.63-.74-1l-.64-1c-.43-.69-.88-1.37-1.28-2.08l-1.1-2.16a22,22,0,0,1-1-2.2,55.16,55.16,0,0,1-3.09-9.19,43.61,43.61,0,0,1-.18-19.29,44.48,44.48,0,0,1,3.1-9.2,39.48,39.48,0,0,1,5.08-8.31l.31.82-12-1.55.51-.27c-.72,1.41-1.5,2.75-2.34,4.08a41,41,0,0,1-2.72,3.84A24,24,0,0,1,137,113a11.42,11.42,0,0,1-4.18,2.42l.33-.29-16.4,39.22,0,.11-.09.07a11.78,11.78,0,0,1-2.32,1.56,6.09,6.09,0,0,1-1.35.52,6,6,0,0,1-.76.12,2.81,2.81,0,0,1-.81-.1,2.36,2.36,0,0,1-1.32-1,2.64,2.64,0,0,1-.35-.69,2.85,2.85,0,0,1-.21-.71l-.13-.72v-.72c0-.24,0-.48,0-.72l.11-.68a62.56,62.56,0,0,1,3-10.37c2.42-6.73,5.16-13.33,8-19.88l0-.07,0-.06,9.75-10.85-.13.28,1.55-15.29.31.52-12.19-5.1.6-.17a66.59,66.59,0,0,1-4.84,5.73,54.16,54.16,0,0,1-5.47,5.13,30.59,30.59,0,0,1-6.36,4.07,12.88,12.88,0,0,1-7.53,1.22h.1a49,49,0,0,0-11.25,1.39,45.79,45.79,0,0,0-5.41,1.68c-1.79.68-3.56,1.37-5.27,2.17A35.13,35.13,0,0,0,65,117.93a19.94,19.94,0,0,0-3.47,4.36,9.57,9.57,0,0,0-.64,1.23,10.21,10.21,0,0,0-.54,1.28l-.43,1.32a2.37,2.37,0,0,0-.08.31,2.72,2.72,0,0,1-.09.4,1.31,1.31,0,0,1-.72.86l0,0h0a6.37,6.37,0,0,1-1.89.13,4,4,0,0,1-1.9-.61,2.32,2.32,0,0,1-.72-.86,2.87,2.87,0,0,1-.22-1.05,5.47,5.47,0,0,1,.37-1.88,25.28,25.28,0,0,1,3.68-6.09,53.87,53.87,0,0,1,10-9.95,39.45,39.45,0,0,1,12.42-6.62,26.64,26.64,0,0,1,14.06-.55h-.27a17.44,17.44,0,0,0,2.78-1.18,6.69,6.69,0,0,0,2.25-1.77l.18-.27.11-.29a.57.57,0,0,0,.06-.28,2.13,2.13,0,0,0,0-.36,7.43,7.43,0,0,1,.37-1.64,25.25,25.25,0,0,1,1.19-3A39.06,39.06,0,0,1,104.51,86a17.08,17.08,0,0,1,2-2.49,5.5,5.5,0,0,1,1.37-1,2.32,2.32,0,0,1,1-.24c.32,0,.54,0,.81.06l-.38.87-6.91-6.26.64,0a130,130,0,0,1-15.39,9.65A116.51,116.51,0,0,1,71.08,94a76.24,76.24,0,0,1-17.7,4.09,54.58,54.58,0,0,1-9.13.12,45.17,45.17,0,0,1-9-1.65L33.55,96l1.73-.46c9.24-2.46,18.4-5.29,27.38-8.57q6.74-2.43,13.23-5.46A53.27,53.27,0,0,0,88,74.2l-.06.07a3.21,3.21,0,0,0,.43-.87,1.68,1.68,0,0,0,.06-.85,1.11,1.11,0,0,0-.46-.64,3,3,0,0,0-.88-.4h.26a24.74,24.74,0,0,1-4.1.61,17,17,0,0,1-4.15-.21,8.86,8.86,0,0,1-3.94-1.6,7,7,0,0,1-2.37-3.59l.56.37a32.66,32.66,0,0,1-9.73-.51,37.93,37.93,0,0,1-9.22-3c-.75-.31-1.43-.76-2.15-1.13a20.89,20.89,0,0,1-2.09-1.24l-2-1.35c-.65-.49-1.27-1-1.9-1.52A42.68,42.68,0,0,1,42.67,55c-1.14-1.15-2.14-2.42-3.22-3.63l.36.19-12.62-.67.47-.27-.44.88,0,0,0,0A121.08,121.08,0,0,0,19.1,64.35c-.59,1.11-1.14,2.23-1.62,3.38a14.67,14.67,0,0,0-1.07,3.48,2.66,2.66,0,0,0,.18,1.53.55.55,0,0,0,.19.23s.23.2.38.33a2.2,2.2,0,0,1,.63,1,3.37,3.37,0,0,1-.27,2.17,6.65,6.65,0,0,1-1.12,1.71,8.82,8.82,0,0,1-3.27,2.29,6.66,6.66,0,0,1-4,.34,6.91,6.91,0,0,1-3.45-2,12.43,12.43,0,0,1-2.21-3.26A33.83,33.83,0,0,1,1.13,68.2a55.2,55.2,0,0,1-1-7.58A52.89,52.89,0,0,1,1.27,45.41a43.66,43.66,0,0,1,2.33-7.3l.82-1.74.41-.87.48-.83,1-1.67c.34-.54.72-1.06,1.09-1.59a34.3,34.3,0,0,1,5.11-5.73c1-.8,2-1.62,3-2.36l1.63-1a13.62,13.62,0,0,1,1.65-1A44.84,44.84,0,0,1,33.34,16.7l1.23-.19-.77,1a22.26,22.26,0,0,0-3.11,5.64,23.19,23.19,0,0,0-1.47,6.31,22.57,22.57,0,0,0,.29,6.46,24.7,24.7,0,0,0,.78,3.16c.31,1,.77,2,1.14,3l-.29-.26a1.15,1.15,0,0,0,.61,0,.61.61,0,0,0,.37-.37,3.83,3.83,0,0,0,.09-1.66c-.09-1.27-.14-2.56-.14-3.85a42.42,42.42,0,0,1,.64-7.7l1,.12v.1L33.16,28l13.42-.88.7,0-.19.68a27.66,27.66,0,0,0-1,9.62,25.64,25.64,0,0,0,2.59,9.29l-1,.25a63.89,63.89,0,0,1,.35-10.26c.18-1.7.44-3.39.77-5.07a49.9,49.9,0,0,1,1.26-5l.11-.4.42,0,17,2,.61.08-.19.58a41,41,0,0,0-2.11,13.8,50.82,50.82,0,0,0,2.3,13.83l-1,.17v0A107,107,0,0,1,67.76,45a89.06,89.06,0,0,1,1.78-11.47,56.65,56.65,0,0,1,3.62-11.07A32.16,32.16,0,0,1,76,17.37c.26-.41.57-.8.87-1.19A14.58,14.58,0,0,1,77.85,15c.33-.36.64-.75,1-1.09s.79-.59.81-1.33L81,14.08h0a30.52,30.52,0,0,0-2.76,3,35,35,0,0,0-2.39,3.39,40,40,0,0,0-2,3.63A35.49,35.49,0,0,0,72.22,28l-.32-.62h0l15,4.88-.61.27.57-1.3.93.35A54.49,54.49,0,0,0,85.4,45.37a69.66,69.66,0,0,0,.79,14.06l-.14-.28a6,6,0,0,0,1.39,1,1.45,1.45,0,0,0,.64.19c.15,0,.2-.07.3-.24a5,5,0,0,0,.17-1.66V56.59c0-2.53.14-5.07.33-7.59a92.07,92.07,0,0,1,2.37-15l.15-.59.55.27,16.65,8-.22,0h1.18l-.48.37,1.44-4.6,1,.3a66.46,66.46,0,0,0-2.25,16.79l-1-.19C111.55,46.05,115,38,118.74,30c1.89-4,3.83-7.93,6.08-11.75a26.74,26.74,0,0,1,4-5.43,3.33,3.33,0,0,1,1.68-.95,2.73,2.73,0,0,1,.47,0h.41l.8,0a3.1,3.1,0,0,0,.66-.08h0a.2.2,0,0,0-.09.07.45.45,0,0,0-.12.34c0,.1.11.25.1.24s0,0,0,0l-.33-.11a15.2,15.2,0,0,0-1.55-.34l.15-1c5.11.71,10.19,1.58,15.23,2.66,2.52.54,5,1.15,7.52,1.91a35.93,35.93,0,0,1,3.68,1.32,8.23,8.23,0,0,1,3.39,2.31l-.83,0a5.22,5.22,0,0,0,.65-3.85,7,7,0,0,0-2.18-3.44,6.73,6.73,0,0,0-.82-.68,7.56,7.56,0,0,0-.85-.64c-.63-.36-1.2-.79-1.87-1.09s-1.28-.67-2-.92l-2-.8.15,0L136.2,7.5h-.46l0-.44a5.29,5.29,0,0,1,.89-3.16A7.3,7.3,0,0,1,139,1.76,14.71,14.71,0,0,1,144.88.12a25.74,25.74,0,0,1,3-.1,27.33,27.33,0,0,1,3,.15c2,.14,4,.5,6,.8H157a18.47,18.47,0,0,1,5.36,3.73,28.33,28.33,0,0,1,4.07,5,36.31,36.31,0,0,1,3,5.69c.43,1,.76,2,1.15,3l.92,3.08-.25-.32,13.07,6.87-.51,0a6.31,6.31,0,0,0,2.62-4.91,9.18,9.18,0,0,0-2.15-5.38,25.94,25.94,0,0,0-4.41-4.22,59.83,59.83,0,0,0-5.12-3.48l-.23-.15V9.7A6.34,6.34,0,0,1,174.92,7a3.51,3.51,0,0,1,2.06-2,5.22,5.22,0,0,1,2.79-.12l.67.14.64.21a8.09,8.09,0,0,1,1.24.47,20,20,0,0,1,4.52,2.68,22.51,22.51,0,0,1,3.69,3.74,19.07,19.07,0,0,1,3.87,9.67A16.45,16.45,0,0,1,192,31.86l-.15-.68,18.39,12.41-.71.16a51.23,51.23,0,0,1,13.7-13.87A54.41,54.41,0,0,1,241,21.82a61,61,0,0,1,19.41-1.58A83,83,0,0,1,279.48,24l.31.66c0-.14,0,0,.1,0a1.5,1.5,0,0,0,.44.24,5.73,5.73,0,0,0,1.22.25,17.93,17.93,0,0,0,2.65.08c1.8-.06,3.57-.28,5.39-.51a72.11,72.11,0,0,1,11-.35,78.86,78.86,0,0,1,21.59,3.82,66.65,66.65,0,0,1,19.45,10.11,65.52,65.52,0,0,1,8.16,7.37A72.62,72.62,0,0,1,356.61,54.36Z" fill="#ececec"/><path d="M25.43,28c-.78.29-1.59.54-2.31.84s-1.38.62-2,1a20.12,20.12,0,0,0-3.6,2.78A29.88,29.88,0,0,0,12,39.92l-.54,1-.27.51c-.11.16.19.53.17.73v0s0,0-.06,0L11,42.08c-.09,0,0,0-.08,0l-.1.11a2.07,2.07,0,0,0-.17.24,3.06,3.06,0,0,0-.26.51L9.93,44c-.65,1.38-1.21,2.81-1.75,4.25s-.93,2.91-1.53,4.4A10.25,10.25,0,0,1,5.5,54.84a3.27,3.27,0,0,1-1,.92,1.41,1.41,0,0,1-1.67-.24l-.13-.13V55.2A43,43,0,0,1,4,43.2,32.39,32.39,0,0,1,6.1,37.5a29.92,29.92,0,0,1,3.1-5.22A32.69,32.69,0,0,1,18,24a35.47,35.47,0,0,1,11.14-4.73l1-.25-.52,1Zm-.64-.77,4-7.66.53.73a34.55,34.55,0,0,0-10.78,4.59,32,32,0,0,0-8.57,8,28.64,28.64,0,0,0-3,5.06,31,31,0,0,0-2,5.53A42.4,42.4,0,0,0,3.68,55.18l-.13-.33a.44.44,0,0,0,.48,0,2.5,2.5,0,0,0,.67-.64,8.84,8.84,0,0,0,1-1.93c.56-1.38,1-2.9,1.52-4.36S8.35,45,9,43.61a10.17,10.17,0,0,1,.51-1A3.26,3.26,0,0,0,9.79,42l.09-.28,0-.15s.05,0,0-.1l-.28-.16c-.07,0,0,0,0,0l0,0c.15-.15.63-.12.71-.3l.29-.51.59-1A37.14,37.14,0,0,1,17,32.1a23.21,23.21,0,0,1,3.71-2.91c.65-.45,1.38-.76,2.07-1.15S24.12,27.49,24.79,27.22Z" fill="#ececec"/><path d="M134.44,13.81a7.83,7.83,0,0,1,4.76,1.67,7.19,7.19,0,0,1,1.69,1.95,6.54,6.54,0,0,1,.3.59,2.85,2.85,0,0,1,.12.31l.06.15c0,.06,0,.11.18.13a5,5,0,0,0,0,1.35,5.79,5.79,0,0,1-2.33,4.54,8,8,0,0,1-9.62,0A5.83,5.83,0,0,1,127.29,20a5.83,5.83,0,0,1,2.34-4.54A7.91,7.91,0,0,1,134.44,13.81Zm0,1a6.93,6.93,0,0,0-4.2,1.4,4.81,4.81,0,0,0-2,3.75,4.84,4.84,0,0,0,2,3.76,7,7,0,0,0,8.39,0,4.84,4.84,0,0,0,2-3.76,4.87,4.87,0,0,1,0-.54.43.43,0,0,0-.09-.26l0-.06,0,0h0l-.27.05-.13,0h0a2.53,2.53,0,0,1,.32-.21c.14-.08.11-.12.1-.16l0-.13a2.76,2.76,0,0,0-.08-.27,5.38,5.38,0,0,0-.2-.51,4.94,4.94,0,0,0-1.42-1.7A7,7,0,0,0,134.44,14.81Z" fill="#ececec"/><path d="M114.37,60.49,114.2,60l1-.3a15.3,15.3,0,0,0,3.21,4.74,35,35,0,0,0,4.41,3.92,47,47,0,0,0,5,3.26c.84.51,1.73.95,2.59,1.43.16.24.65-.16.89-.09,0,0,0,0,0,.05a3.16,3.16,0,0,0-.14.32s0,0,0,0l.07.06a1.58,1.58,0,0,0,.15.12,2.11,2.11,0,0,0,.31.21c.43.23.89.42,1.33.66l-.23,0h.54v.52l-.28-.45a139.15,139.15,0,0,0,23,8.65l3.89,1.12-4-.14a68.11,68.11,0,0,1-12.49-1.69,58,58,0,0,1-11.91-4.08A44.48,44.48,0,0,1,126,75.19a37.65,37.65,0,0,1-4.88-4,28.56,28.56,0,0,1-6.74-10.66Zm.93-.36a27.49,27.49,0,0,0,6.52,10.31,35.63,35.63,0,0,0,4.74,3.92,43.56,43.56,0,0,0,5.35,3.07,56.6,56.6,0,0,0,11.71,4,66.32,66.32,0,0,0,12.27,1.67l-.14,1a140,140,0,0,1-23.22-8.72l-.27-.13V74.9l.5.5h-.15l-.11-.05c-.45-.22-.88-.49-1.32-.72a2.2,2.2,0,0,0-.36-.13l-.18,0-.09,0s0,0-.06,0-.13.22-.18.3,0,0,0,0c-.2-.17-.16-.78-.43-.79-.87-.52-1.75-1-2.59-1.53q-2.56-1.59-5-3.36a39.91,39.91,0,0,1-4.56-4,15.84,15.84,0,0,1-3.49-5l.94-.3Z" fill="#ececec"/><path d="M160.62,158.34a11.16,11.16,0,0,1-4.55-3.44,18.73,18.73,0,0,1-2.77-4.9,30.72,30.72,0,0,1-1.6-5.35,46.63,46.63,0,0,1-.88-5.5,58.08,58.08,0,0,1,.11-11.11,44.76,44.76,0,0,1,.92-5.5,22.56,22.56,0,0,1,1.85-5.32,6.2,6.2,0,0,1,1.91-2.29l.38-.19.19-.09h0a.71.71,0,0,1,.24,0,.59.59,0,0,1,.38.24l0,.08a1.24,1.24,0,0,1,.06.22,7,7,0,0,1,0,.77l0,1.39c-.07,1.83-.12,3.66-.12,5.49a73.68,73.68,0,0,0,.76,10.92,35.73,35.73,0,0,0,3.05,10.4,15.31,15.31,0,0,0,7.28,7.52l.15.07.07.13a14.25,14.25,0,0,1,1.59,3.66,5.07,5.07,0,0,1,.15,2.11,2.62,2.62,0,0,1-.44,1.09,2.4,2.4,0,0,1-.93.75,4.57,4.57,0,0,1-2.12.34,10.74,10.74,0,0,1-2-.29A29,29,0,0,1,160.62,158.34Zm.36-.94a27.67,27.67,0,0,0,3.59,1.14,6.08,6.08,0,0,0,3.46,0c.95-.38,1-1.66.68-2.81a13.49,13.49,0,0,0-1.47-3.38l.22.2a16.4,16.4,0,0,1-7.77-8,37,37,0,0,1-3.14-10.69,74.72,74.72,0,0,1-.77-11.07c0-1.85.05-3.7.12-5.54l0-1.37c0-.21,0-.47,0-.6s0,0,0,0l0,0a.52.52,0,0,0,.35.21c.22,0,.22,0,.19,0h0l-.12.07-.24.11a5.28,5.28,0,0,0-1.56,1.92,21.73,21.73,0,0,0-1.76,5.07,48.3,48.3,0,0,0-.9,5.38,58.48,58.48,0,0,0-.12,10.91,49.32,49.32,0,0,0,.72,5.42,30.26,30.26,0,0,0,1.57,5.2,18.26,18.26,0,0,0,2.69,4.63A10.23,10.23,0,0,0,161,157.4Z" fill="#ececec"/><path d="M192.24,159.41a11.66,11.66,0,0,1,1,1.18c.24.35.53.67.79,1,.53.66,1.1,1.3,1.66,1.93s1.15,1.26,1.75,1.87,1.17,1.24,1.8,1.81c1.24,1.17,2.48,2.35,3.8,3.43l2,1.65,2,1.55a101.25,101.25,0,0,0,17.53,10.56l4.71,2c.8.32,1.56.71,2.37,1l2.42.85c1.62.56,3.22,1.18,4.85,1.67l5,1.38c.82.23,1.64.47,2.47.68l2.51.51,5,1a24.19,24.19,0,0,0,2.53.4l2.55.35L264,195l-.21.83a49.77,49.77,0,0,1-5.84-2.93,43.13,43.13,0,0,1-5.34-3.76,36.82,36.82,0,0,1-4.65-4.61c-.71-.84-1.38-1.7-2-2.6-.32-.44-.61-.91-.91-1.36a12.85,12.85,0,0,0-1.08-1.28c-.83-2.06-1.71-4.05-2.4-6.14a28.63,28.63,0,0,1-1.4-6.42,16.39,16.39,0,0,1,.55-6.62,9.78,9.78,0,0,1,.75-1.52,9.27,9.27,0,0,0,1.16-4.4,8.6,8.6,0,0,0-2.05-5.62,5.18,5.18,0,0,0-2.44-1.56,3.64,3.64,0,0,0-2.75.41,5.12,5.12,0,0,0-1.17.91,8.68,8.68,0,0,1-1.23,1.16,9.6,9.6,0,0,1-3.07,1.42,30.19,30.19,0,0,1-6.49,1,99.05,99.05,0,0,1-13-.14c-4.32-.31-8.62-.76-12.91-1.38l-2-.29,1.88-.67,7.78-2.78,1-.35,1-.28,2-.56,4-1.12,1-.28,1-.21,2-.4,4.06-.81c1.36-.18,2.74-.32,4.11-.48l2.06-.23c.68-.08,1.38,0,2.07-.07l4.14-.07,4.15.34a40.43,40.43,0,0,1,8.11,1.8c.33.11.67.19,1,.32l1,.42,1.92.83c.62.31,1.21.69,1.82,1l.91.52c.3.18.57.4.86.6a20,20,0,0,1,5.87,6l.75,1.22-1.37-.52a13.18,13.18,0,0,0-4.34-1,6.53,6.53,0,0,0-4.07,1.15,7.86,7.86,0,0,0-2.56,3.45,14.11,14.11,0,0,0-1,4.33l0-.16a35.94,35.94,0,0,0,4.31,9,38.51,38.51,0,0,0,6.64,7.44,50,50,0,0,0,8.14,5.85,71.1,71.1,0,0,0,9,4.47,108.49,108.49,0,0,0,19.27,5.86,134.84,134.84,0,0,0,20,2.73l4.34.25-4.27.74a133.6,133.6,0,0,1-22.5,2.21,77,77,0,0,1-22.42-2.93l.18,0c-3.46.25-6.93.29-10.4.23s-6.93-.35-10.36-.82a101.19,101.19,0,0,1-20.24-4.71,96,96,0,0,1-18.79-8.86A106.09,106.09,0,0,1,193,170.86l0,0,0,0a30,30,0,0,1-1.73-2.74,19.87,19.87,0,0,1-1.38-3,7,7,0,0,1-.51-3.36,2.72,2.72,0,0,1,.92-1.67,2,2,0,0,1,.4-.27,2.39,2.39,0,0,1,.43-.2,2.63,2.63,0,0,1,.49-.15A3,3,0,0,1,192.24,159.41Zm-.4.91c-.1.15-.12.11-.39.22a1.28,1.28,0,0,0-.29.13,1,1,0,0,0-.26.18,1.69,1.69,0,0,0-.58,1.05,6.24,6.24,0,0,0,.47,2.86,24.63,24.63,0,0,0,3,5.44l-.06-.06A105.48,105.48,0,0,0,210,182.75a94.59,94.59,0,0,0,18.6,8.76,99.8,99.8,0,0,0,20,4.67c3.41.46,6.84.67,10.27.81s6.87,0,10.3-.23h.09l.09,0a76.11,76.11,0,0,0,22.13,2.89,134.08,134.08,0,0,0,22.33-2.19l.06,1a136.4,136.4,0,0,1-20.14-2.75,110.08,110.08,0,0,1-19.44-5.91,72.51,72.51,0,0,1-9.13-4.54,51.05,51.05,0,0,1-8.29-6,38.88,38.88,0,0,1-6.8-7.63,36.75,36.75,0,0,1-4.45-9.23l0-.09v-.08a15,15,0,0,1,1.06-4.67,8.86,8.86,0,0,1,2.9-3.88,7.51,7.51,0,0,1,4.68-1.34,14.22,14.22,0,0,1,4.67,1l-.62.69a19.18,19.18,0,0,0-5.57-5.64c-.27-.19-.53-.41-.82-.58l-.88-.5c-.59-.33-1.15-.69-1.76-1l-1.85-.81-.93-.4c-.31-.13-.64-.21-1-.31a40.38,40.38,0,0,0-7.91-1.76l-4.06-.33-4.08.07a19.67,19.67,0,0,0-2,.07l-2,.23-4.06.47-4,.8-2,.4-1,.2-1,.28-3.94,1.11-2,.55-1,.28-1,.35-7.72,2.76-.11-1c4.25.61,8.54,1.07,12.83,1.37a97,97,0,0,0,12.87.14,30.49,30.49,0,0,0,6.27-1,8.88,8.88,0,0,0,2.77-1.27,16.84,16.84,0,0,1,2.49-2.14,5,5,0,0,1,1.69-.6,4.75,4.75,0,0,1,1.8.09,6.12,6.12,0,0,1,2.94,1.86,9.6,9.6,0,0,1,2.31,6.29,10.3,10.3,0,0,1-.59,3.34,8.89,8.89,0,0,1-.7,1.54,9.74,9.74,0,0,0-.68,1.38,15.44,15.44,0,0,0-.49,6.19,24.37,24.37,0,0,0,4.16,11.88,7.58,7.58,0,0,0,1.45,2.84c.6.88,1.25,1.73,1.93,2.54a35.66,35.66,0,0,0,4.51,4.52,42.3,42.3,0,0,0,5.2,3.71,51.07,51.07,0,0,0,5.71,2.91l2.87,1.25-3.08-.43-5.11-.72-2.56-.36c-.85-.12-1.7-.22-2.54-.42l-5-1.07-2.53-.53c-.83-.21-1.66-.46-2.48-.69l-5-1.39c-1.64-.5-3.25-1.12-4.88-1.68l-2.43-.86c-.82-.27-1.59-.66-2.39-1l-4.75-2a108.23,108.23,0,0,1-17.71-10.58l-2.07-1.55-2-1.65c-1.35-1.08-2.6-2.26-3.87-3.43-.65-.57-1.23-1.21-1.84-1.82s-1.22-1.23-1.79-1.88-1.16-1.28-1.7-1.95c-.28-.34-.57-.66-.83-1S191.76,160.45,191.84,160.32Z" fill="#ececec"/><path d="M188.55,80.3a2.06,2.06,0,0,1,0,.44,1.62,1.62,0,0,1-.17.5,7.12,7.12,0,0,1-.61,1.16A9.34,9.34,0,0,1,186,84.31a10.78,10.78,0,0,1-2.13,1.41,14.77,14.77,0,0,1-2.36,1l-.08,0-.09,0-1.73-.41c-.56-.2-1.13-.38-1.68-.6a10.66,10.66,0,0,1-1.59-.87l-.38-.26c-.12-.09-.54.18-.69.08h0s.31-.39.25-.33l0-.06-.06-.11-.14-.19a1.67,1.67,0,0,0-.32-.33,6.81,6.81,0,0,1-1.67-3.28,7.82,7.82,0,0,1,.13-3.69l0,.17a4.93,4.93,0,0,1,1.12-3.48,5.76,5.76,0,0,1,3.21-1.71,13.25,13.25,0,0,1,3.49-.21,19.93,19.93,0,0,1,3.43.47l.07,0,.07,0,17.5,10.41,2.57,1.53-2.93-.61C197.44,82.33,193,81.34,188.55,80.3Zm-.56-.83c4.68.89,9.42,1.82,14.12,2.81l-.36.92-17.5-10.41.14,0a20.83,20.83,0,0,0-3.25-.45,12.8,12.8,0,0,0-3.23.2A4.73,4.73,0,0,0,175.24,74a3.93,3.93,0,0,0-.87,2.79v.07l0,.1a7,7,0,0,0-.1,3.18A6.5,6.5,0,0,0,175.66,83a1.48,1.48,0,0,0,.29.27l.18.11.09,0,.05,0c-.05.07.29-.3.29-.3v0c.05.12-.12.54,0,.62l.32.25a9.9,9.9,0,0,0,1.4.86c.5.23,1,.43,1.55.63l1.64.44h-.17a10.4,10.4,0,0,0,2.21-.88,10.67,10.67,0,0,0,2-1.32A7.15,7.15,0,0,0,187,82a6.69,6.69,0,0,0,.49-1,6.43,6.43,0,0,0,.21-.68C187.8,80,187.89,79.72,188,79.47Z" fill="#ececec"/><path d="M349,62a.76.76,0,0,1-.55-.21l-.08-.08-.16-.16-.33-.32-.67-.64-1.36-1.25c-.91-.83-1.83-1.65-2.77-2.44-1.9-1.58-3.83-3.12-5.8-4.6s-4-2.86-6.07-4.21c-1-.66-2.08-1.32-3.14-1.95-.52-.33-1.05-.63-1.59-.94l-.8-.46a.86.86,0,0,0-.53,0,1,1,0,0,1-.29,0h-.12s0,0-.05,0,.1-.21.14-.31,0-.06,0-.07a7.09,7.09,0,0,0-1.56-1c-.55-.27-1.09-.56-1.64-.84-1.09-.56-2.19-1.11-3.31-1.61a58.9,58.9,0,0,0-6.85-2.68,36.44,36.44,0,0,0-14.4-1.93H297l-.12-.06a10.55,10.55,0,0,1-2-1.29,3.74,3.74,0,0,1-1.48-2.14,2,2,0,0,1,.36-1.45,3.87,3.87,0,0,1,1-.88,9.39,9.39,0,0,1,2.21-1c.75-.24,1.51-.42,2.27-.59a19.06,19.06,0,0,1,2.34-.36,16.35,16.35,0,0,1,4.69.5,46.35,46.35,0,0,1,8.69,3.19c2.79,1.31,5.49,2.79,8.13,4.36a127,127,0,0,1,15.06,10.58,78.66,78.66,0,0,1,6.81,6.24,31.25,31.25,0,0,1,3,3.58A12.68,12.68,0,0,1,349,59.08a5.61,5.61,0,0,1,.38,1.2,3,3,0,0,1,.05.67v.18a.57.57,0,0,1,0,.23A1.17,1.17,0,0,1,349,62Zm-.24-1c-.11-.08-.29,0-.3.06s0,0,0,0v-.11a1.81,1.81,0,0,0,0-.46,4.75,4.75,0,0,0-.32-1A11.26,11.26,0,0,0,347,57.58a29.61,29.61,0,0,0-2.89-3.46A75.48,75.48,0,0,0,337.42,48a125.25,125.25,0,0,0-14.94-10.49c-2.61-1.56-5.29-3-8-4.31A45.47,45.47,0,0,0,306,30a12.8,12.8,0,0,0-6.59-.13,19.18,19.18,0,0,0-2.17.57,8.41,8.41,0,0,0-2,.86c-.59.37-1,.85-.91,1.34a2.93,2.93,0,0,0,1.13,1.52,10.28,10.28,0,0,0,1.83,1.16l-.26,0a37.31,37.31,0,0,1,14.8,2,83.79,83.79,0,0,1,13.63,6c1,.75,2.12,1.3,3.15,2s2.08,1.34,3.11,2c2.06,1.39,4.05,2.87,6,4.34s3.94,3,5.84,4.6c1,.78,1.92,1.58,2.86,2.38l1.41,1.22.7.62.35.31.17.15.09.08A.33.33,0,0,0,348.77,61Z" fill="#ececec"/></g></g></svg>